<svg width="267" height="64" viewBox="0 0 267 64" fill="none" xmlns="http://www.w3.org/2000/svg">
<ellipse cx="141.408" cy="33.4082" rx="125" ry="25" fill="#FFCC5C"/>
<path d="M30.6299 1.71484C31.2289 0.730196 32.6999 0.762767 33.2412 1.8125L39.4121 13.79L52.2461 9.68457L52.3545 9.6543C53.4743 9.38179 54.4916 10.4452 54.1318 11.5703L50.0254 24.4033L62.0039 30.5752C63.0872 31.1338 63.0872 32.6826 62.0039 33.2412L50.0254 39.4121L54.1318 52.2461C54.5032 53.4073 53.4073 54.5032 52.2461 54.1318L39.4121 50.0254L33.2412 62.0039C32.6826 63.0872 31.1338 63.0872 30.5752 62.0039L24.4033 50.0254L11.5703 54.1318C10.4091 54.5032 9.31322 53.4073 9.68457 52.2461L13.79 39.4121L1.8125 33.2412C0.729179 32.6826 0.729183 31.1338 1.8125 30.5752L13.79 24.4033L9.68457 11.5703C9.31322 10.4091 10.4091 9.31322 11.5703 9.68457L24.4033 13.79L30.5752 1.8125L30.6299 1.71484Z" fill="#D2042D" stroke="#FFCC5C" stroke-width="2"/>
<path d="M31.4807 16.8082C32.782 16.8082 33.8487 17.2135 34.6807 18.0242C35.534 18.8349 35.9607 19.9229 35.9607 21.2882V37.9282C35.9607 39.2935 35.534 40.3815 34.6807 41.1922C33.8487 42.0029 32.782 42.4082 31.4807 42.4082H27.0007V16.8082H31.4807ZM30.2007 39.2082H31.4807C31.8434 39.2082 32.142 39.0909 32.3767 38.8562C32.6327 38.6002 32.7607 38.2909 32.7607 37.9282V21.2882C32.7607 20.9255 32.6327 20.6269 32.3767 20.3922C32.142 20.1362 31.8434 20.0082 31.4807 20.0082H30.2007V39.2082Z" fill="#FFCC5C"/>
</svg>
